<svg id="Layer_1" data-name="Layer 1" xmlns="http://www.w3.org/2000/svg" viewBox="0 0 600 150"><defs><style>.cls-1{fill:#f05952;}.cls-2{fill:#fff;}</style></defs><title>Serverless_lockup_red&amp;amp;white</title><polygon class="cls-1" points="31.74 103.5 10 103.5 10 123.84 25 123.84 31.74 103.5"/><polygon class="cls-1" points="44.54 64.83 10 64.83 10 85.17 37.81 85.17 44.54 64.83"/><polygon class="cls-1" points="57.35 26.16 10 26.16 10 46.5 50.61 46.5 57.35 26.16"/><polygon class="cls-1" points="78.77 26.16 72.04 46.5 132.82 46.5 132.82 26.16 78.77 26.16"/><polygon class="cls-1" points="59.23 85.17 132.82 85.17 132.82 64.83 65.97 64.83 59.23 85.17"/><polygon class="cls-1" points="46.43 123.84 132.82 123.84 132.82 103.5 53.16 103.5 46.43 123.84"/><path class="cls-2" d="M320.59,86.51l-9.74-32.08h-9.31l13.33,41H326l14.14-40.93c-2.88,0-5.84,0-9,0Z"/><path class="cls-2" d="M444.27,33.87H426.75v7.4h8.74V95.39h21.17v-8H444.27Z"/><path class="cls-2" d="M402.28,62l-.18-7.7-8.35,0V95.39h9c0-.69,0-25,0-25a7.49,7.49,0,0,1,7.34-7.45h13.65V54.06H411.49C404.31,54.06,402.46,61.31,402.28,62Z"/><path class="cls-2" d="M529,70.44c-8.32-1-9.59-1.85-9.65-4.36a2.72,2.72,0,0,1,.81-2.17c1.31-1.3,4.19-2.06,7.32-1.95a61.28,61.28,0,0,1,14.08,2.3l2.55-8.21a68.83,68.83,0,0,0-16.33-2.68c-5.64-.2-10.61,1.42-13.66,4.43a11.27,11.27,0,0,0-3.36,8.48C511,77,521.19,78.18,528,79c7.61.89,9.76,1.65,9.88,4,.1,1.8,0,6-10.76,5.23a37.43,37.43,0,0,1-13.33-3.84L510,92.11a47.07,47.07,0,0,0,17.26,4.28c4.66.17,11.34-.11,15.56-4.4A12,12,0,0,0,546,82.56C545.51,72.39,535.55,71.22,529,70.44Z"/><path class="cls-2" d="M590,82.56c-.54-10.17-10.49-11.34-17.09-12.12-8.31-1-9.65-1.85-9.65-4.36,0-2,1.59-4.12,8.13-4.12a48.27,48.27,0,0,1,14.08,2.3L588,56.05a68.85,68.85,0,0,0-16.34-2.68c-5.63-.2-10.61,1.42-13.65,4.43a11.23,11.23,0,0,0-3.36,8.48c.24,10.7,10.46,11.9,17.23,12.7,7.6.89,9.75,1.65,9.88,4,.09,1.8,0,6-10.76,5.23A48.52,48.52,0,0,1,557.39,85l-3.5,7.12a47.06,47.06,0,0,0,17.25,4.28c4.66.17,11.35-.11,15.56-4.4A12.07,12.07,0,0,0,590,82.56Z"/><path class="cls-2" d="M190.86,70.44c-8.31-1-9.58-1.85-9.65-4.36a2.73,2.73,0,0,1,.82-2.17c1.31-1.3,4.18-2.06,7.31-1.95a61.15,61.15,0,0,1,14.08,2.3L206,56.05a68.85,68.85,0,0,0-16.34-2.68C184,53.17,179,54.79,176,57.8a11.23,11.23,0,0,0-3.36,8.48c.24,10.7,10.46,11.9,17.23,12.7,7.6.89,9.75,1.65,9.88,4,.09,1.8,0,6-10.76,5.23a37.34,37.34,0,0,1-13.33-3.84l-3.79,7.71a47,47,0,0,0,17.25,4.28c4.66.17,11.35-.11,15.56-4.4A12.07,12.07,0,0,0,208,82.56C207.41,72.39,197.45,71.22,190.86,70.44Z"/><path class="cls-2" d="M482.7,53.31c-17.17,0-20.44,16.58-20.44,21.24s1.44,21.87,20.8,21.87c8.12,0,16.75-3.45,16.75-3.45l-2.24-7a44.13,44.13,0,0,1-13.79,2.73c-8.1,0-12.48-5.38-12.48-10.39h30.75V73S502.05,53.31,482.7,53.31Zm11,17.54H471.2s1.2-9.73,11.5-9.73C494.09,61.12,493.7,70.85,493.7,70.85Z"/><path class="cls-2" d="M365.11,53.31c-17.18,0-20.44,16.58-20.44,21.24s1.44,21.87,20.8,21.87c8.12,0,16.75-3.45,16.75-3.45l-2.24-7a44.13,44.13,0,0,1-13.79,2.73c-8.11,0-12.48-5.38-12.48-10.39h30.75V73S384.46,53.31,365.11,53.31Zm11,17.54H353.61s1.2-9.73,11.5-9.73C376.5,61.12,376.1,70.85,376.1,70.85Z"/><path class="cls-2" d="M235.23,53.31c-17.18,0-20.45,16.58-20.45,21.24s1.45,21.87,20.81,21.87c8.12,0,16.75-3.45,16.75-3.45l-2.24-7a44.13,44.13,0,0,1-13.79,2.73c-8.11,0-12.48-5.38-12.48-10.39h30.75V73S254.58,53.31,235.23,53.31Zm11,17.54H223.73s1.2-9.73,11.5-9.73C246.62,61.12,246.22,70.85,246.22,70.85Z"/><path class="cls-2" d="M272.07,62l-.18-7.7-8.35,0V95.39h9c0-.69,0-25,0-25a7.49,7.49,0,0,1,7.33-7.45H293.6V54.06H281.28C274.09,54.06,272.25,61.31,272.07,62Z"/></svg>